<svg viewBox="0 0 100 320" fill="none" xmlns="http://www.w3.org/2000/svg">
<path d="M3.48883 6.00854C1.94045 3.34188 3.8644 0 6.94799 0H92.8569C95.9829 0 97.9008 3.42497 96.2673 6.09025L82.1705 29.0903C81.4433 30.2767 80.1517 31 78.7601 31H20.3028C18.8773 31 17.5595 30.2413 16.8437 29.0085L3.48883 6.00854Z" fill="#090909"/>
<path d="M16 36C16 32.6863 18.6863 30 22 30H78C81.3137 30 84 32.6863 84 36V313.515C84 315.106 83.3679 316.632 82.2426 317.757L81.7574 318.243C80.6321 319.368 79.106 320 77.5147 320H50H22.4853C20.894 320 19.3679 319.368 18.2426 318.243L17.7574 317.757C16.6321 316.632 16 315.106 16 313.515V36Z" fill="#0A0A0A"/>
<path d="M49.1818 283.886L41 277V307L49.1818 303.932V283.886Z" fill="#1A1A1A"/>
<path d="M50.9545 283.886L59.1364 277V307L50.9545 303.932V283.886Z" fill="#1A1A1A"/>
<g filter="url(#filter0_i)">
<rect x="39" y="45" width="22" height="22" rx="8" fill="#121212"/>
</g>
<g filter="url(#filter1_i)">
<rect x="39" y="74" width="22" height="37" rx="8" fill="#121212"/>
</g>
<defs>
<filter id="filter0_i" x="39" y="44" width="22" height="23" filterUnits="userSpaceOnUse" color-interpolation-filters="sRGB">
<feFlood flood-opacity="0" result="BackgroundImageFix"/>
<feBlend mode="normal" in="SourceGraphic" in2="BackgroundImageFix" result="shape"/>
<feColorMatrix in="SourceAlpha" type="matrix" values="0 0 0 0 0 0 0 0 0 0 0 0 0 0 0 0 0 0 127 0" result="hardAlpha"/>
<feMorphology radius="1" operator="erode" in="SourceAlpha" result="effect1_innerShadow"/>
<feOffset dy="-1"/>
<feGaussianBlur stdDeviation="1"/>
<feComposite in2="hardAlpha" operator="arithmetic" k2="-1" k3="1"/>
<feColorMatrix type="matrix" values="0 0 0 0 0.1 0 0 0 0 0.1 0 0 0 0 0.1 0 0 0 1 0"/>
<feBlend mode="normal" in2="shape" result="effect1_innerShadow"/>
</filter>
<filter id="filter1_i" x="39" y="73" width="22" height="38" filterUnits="userSpaceOnUse" color-interpolation-filters="sRGB">
<feFlood flood-opacity="0" result="BackgroundImageFix"/>
<feBlend mode="normal" in="SourceGraphic" in2="BackgroundImageFix" result="shape"/>
<feColorMatrix in="SourceAlpha" type="matrix" values="0 0 0 0 0 0 0 0 0 0 0 0 0 0 0 0 0 0 127 0" result="hardAlpha"/>
<feMorphology radius="1" operator="erode" in="SourceAlpha" result="effect1_innerShadow"/>
<feOffset dy="-1"/>
<feGaussianBlur stdDeviation="1"/>
<feComposite in2="hardAlpha" operator="arithmetic" k2="-1" k3="1"/>
<feColorMatrix type="matrix" values="0 0 0 0 0.1 0 0 0 0 0.1 0 0 0 0 0.1 0 0 0 1 0"/>
<feBlend mode="normal" in2="shape" result="effect1_innerShadow"/>
</filter>
</defs>
</svg>
