<svg viewBox="0 0 96 113" fill="none" xmlns="http://www.w3.org/2000/svg">
<path d="M56 73.3128C56 69.2741 52.4183 66 48 66C43.5817 66 40 69.2741 40 73.3128V106.221C40 110.259 43.5817 112 48 112C52.4183 112 56 110.259 56 106.221V73.3128Z" fill="#353534"/>
<path d="M17 106C23.8889 98 30.7778 98 37.6667 106C44.5556 114 51.4444 114 58.3333 106C65.2222 98 72.1111 98 79 106" stroke="url(#paint0_linear_305_126)" stroke-width="2" stroke-linecap="round"/>
<path d="M48 74C62.3594 74 74 62.3594 74 48C74 33.6406 62.3594 22 48 22C33.6406 22 22 33.6406 22 48C22 62.3594 33.6406 74 48 74Z" fill="#E5E2E1"/>
<path d="M63.6381 22.5794C63.1568 22.2594 62.5022 22.3976 62.1761 22.8881C61.8499 23.3786 61.9758 24.0357 62.4571 24.3557L66.3792 26.9633C66.8605 27.2833 67.3323 27.0236 67.6585 26.5331C67.9846 26.0426 68.0415 25.5071 67.5601 25.187L63.6381 22.5794Z" fill="#ED0E11" fill-opacity="0.25"/>
<path d="M60.2004 22.3202C59.1037 21.5911 57.7189 21.7456 57.1073 22.6654C56.4958 23.5853 56.8891 24.922 57.9858 25.6512L66.9218 31.5924C68.0185 32.3215 68.9869 31.8902 69.5985 30.9703C70.21 30.0505 70.2331 28.9906 69.1364 28.2614L60.2004 22.3202Z" fill="#353534"/>
<path opacity="0.6" d="M48 96C74.5097 96 96 74.5097 96 48C96 21.4903 74.5097 0 48 0C21.4903 0 0 21.4903 0 48C0 74.5097 21.4903 96 48 96Z" fill="url(#paint1_radial_305_126)"/>
<path opacity="0.25" d="M48 66C57.9411 66 66 57.9411 66 48C66 38.0589 57.9411 30 48 30C38.0589 30 30 38.0589 30 48C30 57.9411 38.0589 66 48 66Z" fill="#E1B6FF"/>
<defs>
<linearGradient id="paint0_linear_305_126" x1="3985" y1="2140" x2="11425" y2="2140" gradientUnits="userSpaceOnUse">
<stop stop-color="#BB92D8"/>
<stop offset="1" stop-color="#E1B6FF"/>
</linearGradient>
<radialGradient id="paint1_radial_305_126" cx="0" cy="0" r="1" gradientUnits="userSpaceOnUse" gradientTransform="translate(48 48) rotate(90) scale(48)">
<stop stop-color="#E1B6FF"/>
<stop offset="1" stop-color="#E1B6FF" stop-opacity="0"/>
</radialGradient>
</defs>
</svg>
